<svg width="512" height="512" viewBox="0 0 512 512" fill="none" xmlns="http://www.w3.org/2000/svg">
<g clip-path="url(#clip0_7_3)">
<g filter="url(#filter0_d_7_3)">
<path d="M107.344 327.764L0.592001 284.5V245.844L107.344 202.58V232.788L26.96 265.044L107.344 297.3V327.764Z" fill="white" fill-opacity="0.7"/>
<path d="M141.432 348.5V160.084H183.16L238.2 252.756L292.472 160.084H333.432V348.5H293.496V232.788L250.488 306.516H224.888L181.368 232.276V348.5H141.432Z" fill="white"/>
<path d="M339.631 330.245L380.959 197.045H399.391L358.063 330.245H339.631Z" fill="white" fill-opacity="0.7"/>
<path d="M403.896 327.764V297.556L484.28 265.3L403.896 233.044V202.58L510.648 245.844V284.5L403.896 327.764Z" fill="white" fill-opacity="0.7"/>
</g>
</g>
<defs>
<filter id="filter0_d_7_3" x="-4" y="0" width="520" height="520" filterUnits="userSpaceOnUse" color-interpolation-filters="sRGB">
<feFlood flood-opacity="0" result="BackgroundImageFix"/>
<feColorMatrix in="SourceAlpha" type="matrix" values="0 0 0 0 0 0 0 0 0 0 0 0 0 0 0 0 0 0 127 0" result="hardAlpha"/>
<feOffset dy="4"/>
<feGaussianBlur stdDeviation="2"/>
<feComposite in2="hardAlpha" operator="out"/>
<feColorMatrix type="matrix" values="0 0 0 0 0 0 0 0 0 0 0 0 0 0 0 0 0 0 0.5 0"/>
<feBlend mode="normal" in2="BackgroundImageFix" result="effect1_dropShadow_7_3"/>
<feBlend mode="normal" in="SourceGraphic" in2="effect1_dropShadow_7_3" result="shape"/>
</filter>
<clipPath id="clip0_7_3">
<rect width="512" height="512" fill="white"/>
</clipPath>
</defs>
</svg>
