<svg
	class="my-modern-logo"
	width="512"
	height="512"
	viewBox="0 0 512 512"
	fill="currentColor"
	xmlns="http://www.w3.org/2000/svg"
>
	<path
		d="M112.836 274.316L86.148 263.5V253.836L112.836 243.02V250.572L92.74 258.636L112.836 266.7V274.316Z"
		fill="currentColor"
		fill-opacity="0.7"
	/>
	<path
		d="M120.108 279.5V232.396H130.54L144.3 255.564L157.868 232.396H168.108V279.5H158.124V250.572L147.372 269.004H140.972L130.092 250.444V279.5H120.108ZM196.624 280.46C182.543 280.46 172.047 270.348 172.047 255.948C172.047 241.548 182.543 231.436 196.624 231.436C210.704 231.436 221.264 241.548 221.264 255.948C221.264 270.348 210.704 280.46 196.624 280.46ZM183.056 255.948C183.056 264.588 188.879 270.348 196.624 270.348C204.368 270.348 210.256 264.588 210.256 255.948C210.256 247.308 204.368 241.548 196.624 241.548C188.879 241.548 183.056 247.308 183.056 255.948ZM225.208 279.5V232.396H239.864C254.712 232.396 264.824 241.548 264.824 255.948C264.824 270.348 254.712 279.5 239.864 279.5H225.208ZM235.832 269.388H239.864C248.376 269.388 253.816 264.588 253.816 255.948C253.816 247.308 248.376 242.508 239.864 242.508H235.832V269.388ZM268.883 279.5V232.396H295.571V242.252H279.507V250.764H295.379V260.62H279.507V269.644H295.827V279.5H268.883ZM323.267 279.5L311.619 261.068V279.5H300.995V232.396H316.995C326.979 232.396 333.123 237.388 333.123 247.052C333.123 253.516 329.219 258.38 322.563 260.044L336.067 279.5H323.267ZM311.619 252.556H316.483C320.067 252.556 322.307 250.444 322.307 247.052C322.307 243.66 320.067 241.548 316.483 241.548H311.619V252.556ZM338.546 279.5V232.396H348.146L366.066 260.364V232.396H376.05V279.5H366.45L348.53 251.596V279.5H338.546Z"
		fill="currentColor"
	/>
	<path
		d="M380.4 274.508L390.732 241.208H395.34L385.008 274.508H380.4Z"
		fill="currentColor"
		fill-opacity="0.7"
	/>
	<path
		d="M398.724 274.316V266.764L418.82 258.7L398.724 250.636V243.02L425.412 253.836V263.5L398.724 274.316Z"
		fill="currentColor"
		fill-opacity="0.7"
	/>
</svg>
